<?xml version="1.0" encoding="UTF-8"?>
<svg version="1.1" xmlns="http://www.w3.org/2000/svg" width="150" height="70">
<path d="M0 0 C3.3868843 0.82790505 5.50045913 1.45050505 7.875 4.0625 C10.12014338 9.92481884 9.7277302 15.06194708 7.25 20.8125 C4.48833429 25.90185539 0.67241869 29.56612072 -3.46899414 33.52294922 C-9.21409563 39.04259535 -14.81013777 44.87166401 -16 53 C-9.05046348 50.35490454 -3.67445508 46.76337329 2 42 C3.02738281 41.25234375 4.05476563 40.5046875 5.11328125 39.734375 C8.53766455 36.49071017 9.28225901 34.2032895 10.5 29.6875 C12.63385995 22.38801318 15.65708802 17.34291198 21 12 C23.5625 11.8125 23.5625 11.8125 26 12 C27 13 27 13 27 15.875 C25.63885942 24.46609511 18.52998879 31.68001282 13 38 C12.1185312 40.64440639 11.83825182 42.28060752 11.8125 45 C11.79832031 45.680625 11.78414063 46.36125 11.76953125 47.0625 C11.89059589 49.32614132 11.89059589 49.32614132 14 52 C20.51126053 51.72869748 24.34392517 49.52279024 29 45 C40.05101006 32.12761976 44.57423241 18.78034715 44 2 C45.32 2 46.64 2 48 2 C51.34093554 7.47430402 50.61337174 13.83399991 50 20 C46.45431472 33.50658719 36.44088262 46.15775569 24.9375 53.9375 C21.32255959 56.02849494 18.23802613 57 14 57 C11.1875 56.1875 11.1875 56.1875 9 54 C7.98311434 50.70571418 7.42946555 47.41649458 7 44 C6.3709375 44.53109375 5.741875 45.0621875 5.09375 45.609375 C-2.74265145 52.07676656 -9.49228004 57.10362643 -20 57 C-21.485 56.505 -21.485 56.505 -23 56 C-23.99 56.495 -23.99 56.495 -25 57 C-32.0521327 57.56872038 -32.0521327 57.56872038 -35.5 55.5 C-37.63274398 51.9454267 -37.67577607 48.97274415 -37 45 C-35.04387812 38.40985676 -31.85505146 32.65618206 -28 27 C-31.11456604 25.80085866 -31.11456604 25.80085866 -35 26 C-38.07612212 28.19286362 -40.37686958 31.00698471 -42.8125 33.875 C-44.22521107 35.45290058 -45.64056357 37.02844038 -47.05859375 38.6015625 C-47.73647949 39.3637207 -48.41436523 40.12587891 -49.11279297 40.91113281 C-56.71788156 49.32887382 -65.8009422 57.2774154 -77.5859375 58.203125 C-84.61832172 58.32131633 -88.92137703 57.673541 -94.375 52.9375 C-96.76042534 48.62538497 -96.7528791 44.81997855 -96 40 C-91.69197755 31.0393133 -83.06670344 26.19938773 -74 23 C-66.52697379 20.59406734 -60.12944472 19.82261603 -52.30810547 20.34716797 C-41.57923142 21.3622665 -41.57923142 21.3622665 -31.9296875 17.55078125 C-28.88963121 14.67111382 -26.49372109 11.35200523 -24 8 C-18.68149805 3.36357865 -15.14288241 0.84471995 -8 1 C-7.1640625 2.96484375 -7.1640625 2.96484375 -7 6 C-8.47314451 9.06737996 -10.41980819 11.784697 -12.375 14.5625 C-13.40857341 16.06041395 -14.43741062 17.56160961 -15.4609375 19.06640625 C-15.92290527 19.72584229 -16.38487305 20.38527832 -16.86083984 21.06469727 C-18.52929514 23.89921187 -19.1934484 26.00512249 -18.5625 29.25 C-18.376875 29.8275 -18.19125 30.405 -18 31 C-19.65 30.67 -21.3 30.34 -23 30 C-23.27585937 30.86496094 -23.55171875 31.72992188 -23.8359375 32.62109375 C-25.30816622 36.89450933 -27.13889843 40.97087884 -28.9765625 45.09765625 C-29.98667009 47.96219801 -30.20956497 49.99439708 -30 53 C-28.35 52.67 -26.7 52.34 -25 52 C-24.86464844 51.443125 -24.72929688 50.88625 -24.58984375 50.3125 C-21.71002494 40.10380098 -14.60058197 34.39628822 -6.61962891 27.94384766 C-0.88256707 23.26456196 3.49500709 18.38025371 5 11 C4.22971382 6.91748325 3.0318889 4.75626264 0 2 C0 1.34 0 0.68 0 0 Z M-13 4 C-13.66386719 4.60328125 -14.32773438 5.2065625 -15.01171875 5.828125 C-15.89472656 6.62734375 -16.77773437 7.4265625 -17.6875 8.25 C-18.55761719 9.03890625 -19.42773438 9.8278125 -20.32421875 10.640625 C-22.07811899 12.18712974 -23.87640067 13.68500282 -25.71875 15.125 C-28.2109786 17.17340707 -29.50353381 19.16459037 -31 22 C-29.02 22.66 -27.04 23.32 -25 24 C-20.38 17.73 -15.76 11.46 -11 5 C-11.66 4.67 -12.32 4.34 -13 4 Z M21 17 C19.96951963 18.6188996 18.95085322 20.24532489 17.9375 21.875 C17.36902344 22.77992187 16.80054687 23.68484375 16.21484375 24.6171875 C15.81394531 25.40351562 15.41304688 26.18984375 15 27 C15.33 27.66 15.66 28.32 16 29 C17.03325986 27.57140593 18.05127634 26.13177617 19.0625 24.6875 C19.63097656 23.88699219 20.19945313 23.08648437 20.78515625 22.26171875 C21.38650391 21.14216797 21.38650391 21.14216797 22 20 C21.67 19.01 21.34 18.02 21 17 Z M-89.8125 36.5625 C-92.02014358 39.62714807 -93.25213457 42.13393658 -93 46 C-91.38300481 49.12083474 -91.38300481 49.12083474 -88 51 C-78.41515488 52.96449718 -69.8507036 49.13107678 -61.92578125 44.015625 C-54.95148614 38.97913019 -48.91824656 33.22145844 -43 27 C-42.00329125 25.99671955 -41.00480376 24.99517305 -40 24 C-53.77119376 17.11440312 -80.10167174 26.0850274 -89.8125 36.5625 Z " fill="#FFFFFF" transform="translate(98,10)"/>
<path d="" fill="#FFFFFF" transform="translate(0,0)"/>
</svg>
